<svg width="19" height="18" viewBox="0 0 19 18" fill="none" xmlns="http://www.w3.org/2000/svg">
<g id="Iconly/Light-Outline/Call">
<g id="Call">
<mask id="mask0_135_4155" style="mask-type:alpha" maskUnits="userSpaceOnUse" x="2" y="1" width="16" height="16">
<path id="Clip 2" fill-rule="evenodd" clip-rule="evenodd" d="M2.00031 1.50012H17.375V16.8747H2.00031V1.50012Z" fill="white"/>
</mask>
<g mask="url(#mask0_135_4155)">
<path id="Fill 1" fill-rule="evenodd" clip-rule="evenodd" d="M3.76963 3.79552C3.77113 3.79552 3.73363 3.83452 3.68638 3.88102C3.50488 4.05727 3.12913 4.42402 3.12538 5.19127C3.11938 6.26452 3.82513 8.25727 7.22338 11.6548C10.6059 15.0358 12.5956 15.7498 13.6711 15.7498H13.6869C14.4541 15.746 14.8201 15.3695 14.9971 15.1888C15.0511 15.1333 15.0946 15.0928 15.1254 15.0673C15.8724 14.3158 16.2549 13.7563 16.2511 13.3978C16.2459 13.0318 15.7906 12.599 15.1614 12.0005C14.9611 11.81 14.7436 11.603 14.5141 11.3735C13.9194 10.7803 13.6246 10.8815 12.9766 11.1095C12.0804 11.4238 10.8504 11.8513 8.93938 9.93952C7.02538 8.02702 7.45363 6.79852 7.76713 5.90227C7.99363 5.25427 8.09713 4.95877 7.50163 4.36327C7.26838 4.13077 7.05913 3.91027 6.86638 3.70777C6.27163 3.08227 5.84263 2.63002 5.47888 2.62477H5.47288C5.11363 2.62477 4.55563 3.00877 3.76588 3.79852C3.76813 3.79627 3.76888 3.79552 3.76963 3.79552ZM13.6719 16.8746C11.8029 16.8746 9.36612 15.3866 6.42837 12.4503C3.47937 9.50207 1.98912 7.05782 2.00037 5.18507C2.00712 3.94757 2.65587 3.31382 2.89962 3.07607C2.91237 3.06032 2.95587 3.01757 2.97087 3.00257C4.04637 1.92632 4.77162 1.49132 5.49312 1.49957C6.33087 1.51082 6.92712 2.13782 7.68162 2.93207C7.86837 3.12857 8.07087 3.34232 8.29662 3.56732C9.39162 4.66232 9.07962 5.55557 8.82912 6.27257C8.55612 7.05482 8.31987 7.72982 9.73437 9.14432C11.1504 10.5588 11.8254 10.3226 12.6046 10.0473C13.3224 9.79681 14.2134 9.48332 15.3099 10.5783C15.5319 10.8003 15.7426 11.0006 15.9369 11.1858C16.7349 11.9441 17.3649 12.5433 17.3754 13.3833C17.3844 14.0996 16.9494 14.8293 15.8754 15.9041L15.3999 15.5816L15.8019 15.9746C15.5641 16.2183 14.9311 16.8678 13.6929 16.8746H13.6719Z" fill="white"/>
</g>
</g>
</g>
</svg>
