<svg width="22" height="22" viewBox="0 0 22 22" fill="none" xmlns="http://www.w3.org/2000/svg">
<g clip-path="url(#clip0_111_1308)">
<path d="M4.87566 13.2948L4.10988 16.1536L1.31093 16.2128C0.474461 14.6614 0 12.8863 0 11C0 9.17589 0.443609 7.45577 1.22994 5.94116H1.23054L3.72238 6.39801L4.81396 8.8749C4.5855 9.54095 4.46097 10.256 4.46097 11C4.46106 11.8074 4.60732 12.5811 4.87566 13.2948Z" fill="#FBBB00"/>
<path d="M21.8078 8.94513C21.9341 9.61054 22 10.2977 22 11.0001C22 11.7876 21.9172 12.5558 21.7594 13.2968C21.2239 15.8183 19.8248 18.0201 17.8865 19.5783L17.8859 19.5777L14.7473 19.4175L14.3031 16.6445C15.5892 15.8903 16.5943 14.7099 17.1238 13.2968H11.2418V8.94513H17.2096H21.8078Z" fill="#518EF8"/>
<path d="M17.8859 19.5777L17.8865 19.5783C16.0014 21.0935 13.6068 22.0001 11 22.0001C6.81097 22.0001 3.1689 19.6587 1.31097 16.213L4.8757 13.295C5.80465 15.7742 8.19624 17.539 11 17.539C12.2052 17.539 13.3342 17.2133 14.303 16.6445L17.8859 19.5777Z" fill="#28B446"/>
<path d="M18.0213 2.53241L14.4578 5.44981C13.4551 4.82307 12.2699 4.46102 11.0001 4.46102C8.13281 4.46102 5.69648 6.30682 4.81408 8.87494L1.23061 5.9412H1.23001C3.06074 2.41154 6.74874 0 11.0001 0C13.6691 0 16.1163 0.950726 18.0213 2.53241Z" fill="#F14336"/>
</g>
<defs>
<clipPath id="clip0_111_1308">
<rect width="22" height="22" fill="white"/>
</clipPath>
</defs>
</svg>
