<svg width="24" height="24" viewBox="0 0 24 24" fill="none" xmlns="http://www.w3.org/2000/svg">
<path d="M3 9L12 2L21 9V20C21 20.5304 20.7893 21.0391 20.4142 21.4142C20.0391 21.7893 19.5304 22 19 22H5C4.46957 22 3.96086 21.7893 3.58579 21.4142C3.21071 21.0391 3 20.5304 3 20V9Z" stroke="#392D78" stroke-linecap="round" stroke-linejoin="round"/>
<path d="M8 14.5C7.72386 14.5 7.5 14.7239 7.5 15C7.5 15.2761 7.72386 15.5 8 15.5V14.5ZM16 15.5C16.2761 15.5 16.5 15.2761 16.5 15C16.5 14.7239 16.2761 14.5 16 14.5V15.5ZM8 15.5H16V14.5H8V15.5Z" fill="#392D78"/>
<path d="M10 17.5C9.72386 17.5 9.5 17.7239 9.5 18C9.5 18.2761 9.72386 18.5 10 18.5L10 17.5ZM14 18.5C14.2761 18.5 14.5 18.2761 14.5 18C14.5 17.7239 14.2761 17.5 14 17.5L14 18.5ZM10 18.5L14 18.5L14 17.5L10 17.5L10 18.5Z" fill="#392D78"/>
</svg>
