<svg width="127" height="166" viewBox="0 0 127 166" fill="none" xmlns="http://www.w3.org/2000/svg">
<path fill-rule="evenodd" clip-rule="evenodd" d="M34.4656 65.0295C34.4656 62.6037 36.0283 60.5428 38.2019 59.7987C38.1673 58.985 38.1358 58.1203 38.1093 57.211C38.0391 54.8051 38.0039 52.0804 38.0426 49.1598C27.3095 49.989 18.8585 58.9609 18.8585 69.9067V146.641H87.1395C98.6322 146.641 107.949 137.325 107.949 125.832V118.679H126.807V125.832C126.807 147.74 109.048 165.5 87.1395 165.5H0V69.9067C0 48.0623 17.6569 30.3419 39.4771 30.2392C40.5177 23.4256 42.2593 16.7122 45.1365 11.3593C48.6565 4.8104 54.0749 -9.76765e-06 62.1031 0C70.123 9.76768e-06 75.7493 4.8818 79.5919 11.4969C82.6782 16.81 84.76 23.4551 86.1724 30.2387H87.1395C109.048 30.2387 126.807 47.9987 126.807 69.9067V86.8143H107.949V69.9067C107.949 58.9328 99.4545 49.943 88.6822 49.1536C88.9168 52.4419 89.0472 55.5065 89.115 58.1844C89.1311 58.8181 89.1436 59.4306 89.1533 60.0197C91.0369 60.9007 92.3418 62.8127 92.3418 65.0295C92.3418 68.0822 89.8671 70.557 86.8143 70.557C83.7616 70.557 81.2868 68.0822 81.2868 65.0295C81.2868 62.7643 82.6494 60.8173 84.5996 59.9635C84.5905 59.4279 84.579 58.8727 84.5644 58.2997C84.4953 55.5697 84.36 52.4428 84.1141 49.0973H42.596C42.5557 51.9848 42.5896 54.6867 42.6594 57.0783C42.6925 58.2128 42.7336 59.2759 42.7785 60.254C44.4187 61.2128 45.5206 62.9924 45.5206 65.0295C45.5206 68.0822 43.0459 70.557 39.9931 70.557C36.9404 70.557 34.4656 68.0822 34.4656 65.0295ZM81.5179 30.2387C80.1729 24.0773 78.2818 18.3041 75.6558 13.7833C72.274 7.96155 67.9021 4.55207 62.1031 4.55206C56.3126 4.55206 52.1798 7.87032 49.1461 13.5144C46.6928 18.0786 45.0907 23.9642 44.0849 30.2387H81.5179Z" fill="white"/>
<path d="M126.807 97.8694V107.624H107.949V97.8694H126.807Z" fill="white"/>
</svg>
